<?xml version="1.0" encoding="UTF-8" standalone="no"?>
<svg
   xmlns:dc="http://purl.org/dc/elements/1.1/"
   xmlns:cc="http://creativecommons.org/ns#"
   xmlns:rdf="http://www.w3.org/1999/02/22-rdf-syntax-ns#"
   xmlns:svg="http://www.w3.org/2000/svg"
   xmlns="http://www.w3.org/2000/svg"
   xmlns:sodipodi="http://sodipodi.sourceforge.net/DTD/sodipodi-0.dtd"
   xmlns:inkscape="http://www.inkscape.org/namespaces/inkscape"
   viewBox="0 0 80 80"
   version="1.1"
   id="svg4568"
   sodipodi:docname="shapes.svg"
   inkscape:version="0.92.3 (2405546, 2018-03-11)">
  <metadata
     id="metadata4574">
    <rdf:RDF>
      <cc:Work
         rdf:about="">
        <dc:format>image/svg+xml</dc:format>
        <dc:type
           rdf:resource="http://purl.org/dc/dcmitype/StillImage" />
        <dc:title></dc:title>
      </cc:Work>
    </rdf:RDF>
  </metadata>
  <defs
     id="defs4572" />
  <sodipodi:namedview
     pagecolor="#ffffff"
     bordercolor="#666666"
     borderopacity="1"
     objecttolerance="10"
     gridtolerance="10"
     guidetolerance="10"
     inkscape:pageopacity="0"
     inkscape:pageshadow="2"
     inkscape:window-width="1920"
     inkscape:window-height="1080"
     id="namedview4570"
     showgrid="false"
     inkscape:zoom="4.17193"
     inkscape:cx="42.194941"
     inkscape:cy="54.752013"
     inkscape:window-x="0"
     inkscape:window-y="0"
     inkscape:window-maximized="0"
     inkscape:current-layer="svg4568" />
  <rect
     style="fill:#387015;fill-opacity:1;stroke:none;stroke-width:1.69763041;stroke-linecap:butt;stroke-linejoin:miter;stroke-miterlimit:4;stroke-dasharray:none;stroke-opacity:1"
     id="rect4576"
     width="80"
     height="80"
     x="0"
     y="2.7418137e-06" />
  <path
     d="m 13,2 5,20 H 8 Z m 42,31 a 3,3 0 1 0 0,-6 3,3 0 0 0 0,6 z M 2,74 h 40 v 4 H 2 Z m 0,-8 h 31 v 4 H 2 Z M 22,50 h 20 v 4 H 22 Z M 2,58 h 40 v 4 H 2 Z M 65,33 a 3,3 0 1 0 0,-6 3,3 0 0 0 0,6 z m 10,0 a 3,3 0 1 0 0,-6 3,3 0 0 0 0,6 z M 55,43 a 3,3 0 1 0 0,-6 3,3 0 0 0 0,6 z m 10,0 a 3,3 0 1 0 0,-6 3,3 0 0 0 0,6 z m 10,0 a 3,3 0 1 0 0,-6 3,3 0 0 0 0,6 z m -30,0 a 3,3 0 1 0 0,-6 3,3 0 0 0 0,6 z M 17,35 A 5,5 0 0 0 7,35 Z m 10,0 A 5,5 0 0 1 17,35 Z M 58,7 A 5,5 0 0 0 48,7 Z M 68,7 A 5,5 0 0 1 58,7 Z m -3,46 a 3,3 0 1 0 0,-6 3,3 0 0 0 0,6 z m 10,0 a 3,3 0 1 0 0,-6 3,3 0 0 0 0,6 z M 23,2 28,22 H 18 Z m 43,64 v -4 h -4 v 4 h -4 v 4 h 4 v 4 h 4 v -4 h 4 V 66 Z M 38,15 h 4 v 4 h -4 z m 4,4 h 4 v 4 h -4 z m -4,4 h 4 v 4 h -4 z m 8,-8 h 4 v 4 h -4 z"
     id="path4566"
     inkscape:connector-curvature="0"
     style="fill:#ffffff;fill-rule:evenodd;fill-opacity:0.07509881" />
</svg>
